<svg width="30" height="30" viewBox="0 0 30 30" fill="none" xmlns="http://www.w3.org/2000/svg">
<path d="M10 0H0L5 10L10 0Z" fill="black"/>
<path d="M20 0H10L15 10L20 0Z" fill="black"/>
<path d="M30 0H20L25 10L30 0Z" fill="black"/>
<path d="M10 10H0L5 20L10 10Z" fill="black"/>
<path d="M20 10H10L15 20L20 10Z" fill="black"/>
<path d="M30 10H20L25 20L30 10Z" fill="black"/>
<path d="M10 20H0L5 30L10 20Z" fill="black"/>
<path d="M20 20H10L15 30L20 20Z" fill="black"/>
<path d="M30 20H20L25 30L30 20Z" fill="black"/>
</svg>
